<?xml version="1.0" encoding="iso-8859-1"?>
<!-- Generator: Adobe Illustrator 21.0.0, SVG Export Plug-In . SVG Version: 6.00 Build 0)  -->
<svg version="1.1" id="Layer_1" xmlns="http://www.w3.org/2000/svg" xmlns:xlink="http://www.w3.org/1999/xlink" x="0px" y="0px"
	 viewBox="-49 145.276 512 503.449" style="enable-background:new -49 145.276 512 503.449;" xml:space="preserve">
<path style="fill:#E6EAEA;" d="M454.983,145.276H-40.983c-4.427,0-8.017,3.589-8.017,8.017v487.415c0,4.427,3.589,8.017,8.017,8.017
	h495.967c4.427,0,8.017-3.589,8.017-8.017V153.292C463,148.865,459.411,145.276,454.983,145.276z"/>
<path style="fill:#9BAAAB;" d="M454.983,145.276H-40.983c-4.427,0-8.017,3.589-8.017,8.017v110.63h512v-110.63
	C463,148.865,459.411,145.276,454.983,145.276z"/>
<path style="fill:#CDD4D5;" d="M-40.983,145.276c-4.427,0-8.017,3.589-8.017,8.017v487.415c0,4.427,3.589,8.017,8.017,8.017H207
	V145.276H-40.983z"/>
<path style="fill:#687F82;" d="M-40.983,145.276c-4.427,0-8.017,3.589-8.017,8.017v110.63h256V145.276H-40.983z"/>
<path style="fill:#4ACFD9;" d="M215.551,170.929c-18.566,0-33.67,15.105-33.67,33.67s15.105,33.67,33.67,33.67
	s33.67-15.105,33.67-33.67S234.117,170.929,215.551,170.929z"/>
<path style="fill:#FF8C29;" d="M121.489,170.929c-18.566,0-33.67,15.105-33.67,33.67s15.105,33.67,33.67,33.67
	s33.67-15.105,33.67-33.67S140.054,170.929,121.489,170.929z"/>
<path style="fill:#F0353D;" d="M27.426,170.929c-18.566,0-33.67,15.105-33.67,33.67s15.105,33.67,33.67,33.67
	s33.67-15.105,33.67-33.67S45.992,170.929,27.426,170.929z"/>
<g>
	<path style="fill:#FFFFFF;" d="M378.023,195.514H283.96c-4.428,0-8.017-3.589-8.017-8.017s3.588-8.017,8.017-8.017h94.063
		c4.428,0,8.017,3.589,8.017,8.017S382.451,195.514,378.023,195.514z"/>
	<path style="fill:#FFFFFF;" d="M420.779,195.514h-17.102c-4.428,0-8.017-3.589-8.017-8.017s3.588-8.017,8.017-8.017h17.102
		c4.428,0,8.017,3.589,8.017,8.017S425.207,195.514,420.779,195.514z"/>
</g>
<g>
	<path style="fill:#FD6A33;" d="M415.942,431.914l-81.236-76.959c-4.664-4.419-10.771-6.767-17.19-6.583
		c-6.422,0.174-12.392,2.838-16.809,7.501c-4.419,4.664-6.757,10.768-6.583,17.191c0.174,6.421,2.837,12.391,7.501,16.809
		l62.274,58.995l-61.769,55.267c-4.788,4.283-7.62,10.175-7.977,16.589c-0.356,6.414,1.806,12.583,6.091,17.371
		c4.557,5.092,11.091,8.012,17.927,8.013c0.001,0,0.002,0,0.003,0c5.918,0,11.611-2.176,16.029-6.127l81.236-72.685
		c4.996-4.47,7.915-10.878,8.01-17.581C423.543,443.012,420.807,436.524,415.942,431.914z"/>
	<path style="fill:#FD6A33;" d="M257.48,360.121c-11.495-6.614-26.226-2.647-32.842,8.843l-81.236,141.094
		c-6.618,11.492-2.65,26.225,8.843,32.843c3.648,2.099,7.792,3.21,11.983,3.21c8.585,0,16.577-4.619,20.857-12.053l81.236-141.093
		c3.205-5.567,4.051-12.05,2.382-18.252C267.033,368.509,263.047,363.327,257.48,360.121z"/>
</g>
<g>
	<path style="fill:#F0353D;" d="M143.402,510.058c-6.618,11.492-2.65,26.225,8.843,32.843c3.648,2.099,7.792,3.21,11.983,3.21
		c8.585,0,16.577-4.619,20.857-12.053l21.913-38.06v-96.4L143.402,510.058z"/>
	<path style="fill:#F0353D;" d="M119.877,373.063c0.174-6.422-2.163-12.527-6.582-17.191s-10.389-7.327-16.81-7.501
		c-6.403-0.175-12.526,2.164-17.19,6.582l-81.236,76.96c-4.866,4.61-7.602,11.098-7.507,17.801
		c0.095,6.703,3.015,13.112,8.011,17.581L79.8,539.982c4.417,3.951,10.109,6.126,16.029,6.126c0.001,0,0.002,0,0.003,0
		c6.836,0,13.371-2.921,17.927-8.014c8.842-9.883,7.996-25.117-1.887-33.96l-61.769-55.267l62.274-58.995
		C117.039,385.454,119.703,379.484,119.877,373.063z"/>
</g>
</svg>
