<?xml version="1.0" encoding="iso-8859-1"?>
<!-- Generator: Adobe Illustrator 21.0.0, SVG Export Plug-In . SVG Version: 6.00 Build 0)  -->
<svg version="1.1" id="Layer_1" xmlns="http://www.w3.org/2000/svg" xmlns:xlink="http://www.w3.org/1999/xlink" x="0px" y="0px"
	 viewBox="-44.688 141 503.377 512" style="enable-background:new -44.688 141 503.377 512;" xml:space="preserve">
<path style="fill:#4ACFD9;" d="M450.604,141H-36.604c-4.465,0-8.084,3.62-8.084,8.084v495.832c0,4.465,3.62,8.084,8.084,8.084
	h487.208c4.465,0,8.084-3.62,8.084-8.084V149.084C458.688,144.62,455.069,141,450.604,141z"/>
<path style="fill:#0295AA;" d="M-36.604,141c-4.465,0-8.084,3.62-8.084,8.084v495.832c0,4.465,3.62,8.084,8.084,8.084h244.837V141
	H-36.604z"/>
<path style="fill:#CDD4D5;" d="M456.203,548.541L348.413,445.063c-3.104-2.981-8-3.006-11.135-0.059l-101.072,95.008
	l-132.589-184.38c-1.519-2.113-3.962-3.364-6.563-3.364c-0.013,0-0.026,0-0.039,0c-2.616,0.013-5.063,1.29-6.57,3.428
	L-43.213,545.405c-0.96,1.364-1.476,2.99-1.476,4.656v94.855c0,4.465,3.62,8.084,8.084,8.084h487.208
	c4.465,0,8.084-3.62,8.084-8.084v-90.543C458.688,552.172,457.791,550.065,456.203,548.541z"/>
<path style="fill:#FFD1A9;" d="M286.764,296.217c-37.741,0-68.446,30.705-68.446,68.446s30.705,68.446,68.446,68.446
	s68.446-30.705,68.446-68.446S324.506,296.217,286.764,296.217z"/>
<g>
	<path style="fill:#FF8C29;" d="M218.318,364.663c0,37.741,30.705,68.446,68.446,68.446V296.217
		C249.023,296.217,218.318,326.922,218.318,364.663z"/>
	<path style="fill:#FF8C29;" d="M458.688,572.158H-44.688v72.758c0,4.465,3.62,8.084,8.084,8.084h487.208
		c4.465,0,8.084-3.62,8.084-8.084V572.158z"/>
</g>
<g>
	<path style="fill:#FFFFFF;" d="M403.177,239.088c-4.465,0-8.084-3.62-8.084-8.084c0-9.807-7.979-17.785-17.785-17.785
		c-9.807,0-17.785,7.979-17.785,17.785c0,4.465-3.62,8.084-8.084,8.084s-8.084-3.62-8.084-8.084c0-9.807-7.979-17.785-17.785-17.785
		s-17.785,7.979-17.785,17.785c0,4.465-3.62,8.084-8.084,8.084s-8.084-3.62-8.084-8.084c0-9.807-7.979-17.785-17.785-17.785
		s-17.785,7.979-17.785,17.785c0,4.465-3.62,8.084-8.084,8.084c-4.465,0-8.084-3.62-8.084-8.084
		c0-18.722,15.232-33.954,33.954-33.954c10.351,0,19.637,4.657,25.869,11.985c6.232-7.329,15.517-11.985,25.869-11.985
		c10.351,0,19.637,4.657,25.869,11.985c6.232-7.329,15.518-11.985,25.869-11.985c18.722,0,33.954,15.232,33.954,33.954
		C411.261,235.469,407.641,239.088,403.177,239.088z"/>
	<path style="fill:#FFFFFF;" d="M122.924,308.074c-4.465,0-8.084-3.62-8.084-8.084c0-9.807-7.979-17.785-17.785-17.785
		s-17.785,7.979-17.785,17.785c0,4.465-3.62,8.084-8.084,8.084s-8.084-3.62-8.084-8.084c0-9.807-7.979-17.785-17.785-17.785
		s-17.785,7.979-17.785,17.785c0,4.465-3.62,8.084-8.084,8.084s-8.084-3.62-8.084-8.084c0-18.722,15.232-33.954,33.954-33.954
		c10.352,0,19.637,4.656,25.869,11.985c6.232-7.329,15.517-11.985,25.869-11.985c18.722,0,33.954,15.232,33.954,33.954
		C131.008,304.454,127.389,308.074,122.924,308.074z"/>
</g>
<path style="fill:#9BAAAB;" d="M103.618,355.632c-1.519-2.113-3.962-3.364-6.563-3.364c-0.013,0-0.026,0-0.039,0
	c-2.616,0.013-5.063,1.29-6.57,3.428L-43.213,545.405c-0.96,1.364-1.476,2.99-1.476,4.656v94.855c0,4.465,3.62,8.084,8.084,8.084
	h244.837V501.112L103.618,355.632z"/>
<path style="fill:#FD6A33;" d="M-44.688,572.158v72.758c0,4.465,3.62,8.084,8.084,8.084h244.837v-80.842H-44.688z"/>
<path style="fill:#CDD4D5;" d="M103.618,355.632c-1.519-2.113-3.962-3.364-6.563-3.364c-0.013,0-0.026,0-0.039,0
	c-2.616,0.013-5.063,1.29-6.57,3.428l-48.847,69.33h111.919L103.618,355.632z"/>
<path style="fill:#E6EAEA;" d="M348.413,445.063c-3.104-2.981-8-3.006-11.135-0.059l-61.309,57.63h132.413L348.413,445.063z"/>
</svg>
