<?xml version="1.0" encoding="iso-8859-1"?>
<!-- Generator: Adobe Illustrator 21.0.0, SVG Export Plug-In . SVG Version: 6.00 Build 0)  -->
<svg version="1.1" id="Layer_1" xmlns="http://www.w3.org/2000/svg" xmlns:xlink="http://www.w3.org/1999/xlink" x="0px" y="0px"
	 viewBox="-49 212.745 512 368.51" style="enable-background:new -49 212.745 512 368.51;" xml:space="preserve">
<path style="fill:#FFD1A9;" d="M460.968,441.618c-1.159-1.316-28.9-32.616-74.026-64.333
	C345.058,347.846,279.84,312.754,207,312.754S68.942,347.846,27.058,377.285c-45.126,31.717-72.866,63.016-74.026,64.333
	c-2.709,3.08-2.709,7.693,0,10.773c1.159,1.316,28.9,32.616,74.026,64.333C68.942,546.163,134.16,581.255,207,581.255
	s138.058-35.092,179.942-64.532c45.126-31.717,72.866-63.016,74.026-64.333C463.677,449.311,463.677,444.698,460.968,441.618z"/>
<path style="fill:#4ACFD9;" d="M207,325.798c-66.833,0-121.206,54.373-121.206,121.206S140.167,568.21,207,568.21
	s121.206-54.373,121.206-121.206S273.833,325.798,207,325.798z"/>
<path style="fill:#FD6A33;" d="M251.061,408.824c-8.087-4.325-22.145-6.421-44.061,6.784c-21.915-13.203-35.975-11.11-44.061-6.784
	c-10.492,5.616-16.27,17.631-16.27,33.832c0,30.319,49.836,67.646,55.518,71.804c1.433,1.048,3.123,1.572,4.813,1.572
	s3.38-0.524,4.813-1.572c5.682-4.158,55.518-41.485,55.518-71.804C267.331,426.455,261.554,414.44,251.061,408.824z"/>
<path style="fill:#FF8C29;" d="M27.058,377.285c-45.126,31.717-72.866,63.016-74.026,64.333c-2.709,3.08-2.709,7.693,0,10.773
	c1.159,1.316,28.9,32.616,74.026,64.333c41.675,29.293,106.456,64.169,178.855,64.515V312.77
	C133.513,313.118,68.733,347.993,27.058,377.285z"/>
<path style="fill:#0295AA;" d="M85.794,447.004c0,66.47,53.785,120.605,120.119,121.192V325.812
	C139.579,326.399,85.794,380.534,85.794,447.004z"/>
<path style="fill:#F0353D;" d="M162.939,408.824c-10.492,5.616-16.27,17.631-16.27,33.832c0,30.319,49.836,67.646,55.518,71.804
	c1.125,0.823,2.409,1.311,3.726,1.487V414.97C184.622,402.486,170.89,404.571,162.939,408.824z"/>
<g>
	<path style="fill:#FFFFFF;" d="M287.442,455.157c-4.504,0-8.153-3.649-8.153-8.153c0-9.46-1.807-18.661-5.37-27.347
		c-1.709-4.166,0.283-8.928,4.448-10.637c4.164-1.712,8.928,0.283,10.637,4.448c4.373,10.659,6.591,21.942,6.591,33.535
		C295.594,451.508,291.945,455.157,287.442,455.157z"/>
	<path style="fill:#FFFFFF;" d="M264.179,398.629c-2.102,0-4.203-0.808-5.798-2.422c-13.702-13.86-31.949-21.492-51.38-21.492
		c-4.504,0-8.153-3.649-8.153-8.153c0-4.504,3.649-8.153,8.153-8.153c23.822,0,46.187,9.353,62.977,26.336
		c3.165,3.201,3.136,8.363-0.066,11.529C268.322,397.845,266.25,398.629,264.179,398.629z"/>
</g>
<g>
	<path style="fill:#F0353D;" d="M207,285.578c-4.504,0-8.153-3.649-8.153-8.153v-56.527c0-4.504,3.649-8.153,8.153-8.153
		s8.153,3.649,8.153,8.153v56.527C215.153,281.928,211.504,285.578,207,285.578z"/>
	<path style="fill:#F0353D;" d="M291.782,308.298c-1.383,0-2.785-0.352-4.069-1.094c-3.899-2.251-5.235-7.238-2.984-11.137
		l28.263-48.953c2.249-3.9,7.235-5.235,11.137-2.984c3.899,2.251,5.235,7.238,2.984,11.137L298.85,304.22
		C297.34,306.837,294.6,308.298,291.782,308.298z"/>
	<path style="fill:#F0353D;" d="M122.218,308.298c-2.818,0-5.558-1.462-7.068-4.078l-28.263-48.953
		c-2.251-3.899-0.915-8.886,2.984-11.137c3.898-2.25,8.887-0.916,11.137,2.984l28.263,48.953c2.251,3.899,0.915,8.886-2.984,11.137
		C125.003,307.946,123.601,308.298,122.218,308.298z"/>
</g>
</svg>
