<?xml version="1.0" encoding="iso-8859-1"?>
<!-- Generator: Adobe Illustrator 21.0.0, SVG Export Plug-In . SVG Version: 6.00 Build 0)  -->
<svg version="1.1" id="Layer_1" xmlns="http://www.w3.org/2000/svg" xmlns:xlink="http://www.w3.org/1999/xlink" x="0px" y="0px"
	 viewBox="0 0 433.718 512" style="enable-background:new 0 0 433.718 512;" xml:space="preserve">
<path style="fill:#4ACFD9;" d="M425.565,34.786H82.058c-4.504,0-8.153,3.65-8.153,8.153v417.427c0,4.503,3.649,8.153,8.153,8.153
	h343.507c4.504,0,8.153-3.65,8.153-8.153V42.938C433.718,38.436,430.069,34.786,425.565,34.786z"/>
<path style="fill:#0295AA;" d="M82.058,34.786c-4.504,0-8.153,3.65-8.153,8.153v417.427c0,4.503,3.649,8.153,8.153,8.153h173.928
	V34.786H82.058z"/>
<path style="fill:#CDD4D5;" d="M329.905,108.705H8.139c-4.504,0-8.153,3.65-8.153,8.153v304.374c0,2.162,0.859,4.236,2.387,5.765
	l82.616,82.616c1.529,1.53,3.602,2.388,5.766,2.388h239.151c4.504,0,8.153-3.65,8.153-8.153v-386.99
	C338.058,112.355,334.409,108.705,329.905,108.705z"/>
<path style="fill:#E6EAEA;" d="M8.139,108.705c-4.504,0-8.153,3.65-8.153,8.153v304.374c0,2.162,0.859,4.236,2.387,5.765
	l82.616,82.616c1.529,1.53,3.602,2.388,5.766,2.388h78.268V108.705H8.139z"/>
<g>
	<path style="fill:#365558;" d="M277.727,181.537H64.665c-4.504,0-8.153-3.65-8.153-8.153s3.649-8.153,8.153-8.153h213.062
		c4.504,0,8.153,3.65,8.153,8.153C285.88,177.887,282.23,181.537,277.727,181.537z"/>
	<path style="fill:#365558;" d="M277.727,251.108H64.665c-4.504,0-8.153-3.65-8.153-8.153s3.649-8.153,8.153-8.153h213.062
		c4.504,0,8.153,3.65,8.153,8.153C285.88,247.458,282.23,251.108,277.727,251.108z"/>
	<path style="fill:#365558;" d="M277.727,320.679H64.665c-4.504,0-8.153-3.65-8.153-8.153s3.649-8.153,8.153-8.153h213.062
		c4.504,0,8.153,3.65,8.153,8.153S282.23,320.679,277.727,320.679z"/>
	<path style="fill:#365558;" d="M277.727,390.251H64.665c-4.504,0-8.153-3.65-8.153-8.153s3.649-8.153,8.153-8.153h213.062
		c4.504,0,8.153,3.65,8.153,8.153S282.23,390.251,277.727,390.251z"/>
</g>
<path style="fill:#9BAAAB;" d="M0,421.231c0,2.121,0.814,4.206,2.373,5.765l82.616,82.616c1.56,1.56,3.644,2.387,5.766,2.388
	v-82.616c0-4.503-3.65-8.153-8.153-8.153L0,421.231L0,421.231z"/>
<path style="fill:#F0353D;" d="M225.005,29.894C225.005,13.41,211.594,0,195.111,0h-34.786c-16.483,0-29.894,13.41-29.894,29.894
	v143.49c0,16.484,13.411,29.894,29.894,29.894h13.045c16.483,0,29.894-13.41,29.894-29.894V69.028c0-4.503-3.649-8.153-8.153-8.153
	s-8.153,3.65-8.153,8.153v104.357c0,7.493-6.095,13.588-13.588,13.588h-13.045c-7.493,0-13.588-6.095-13.588-13.588V29.894
	c0-7.493,6.095-13.588,13.588-13.588h34.786c7.493,0,13.588,6.095,13.588,13.588v4.348h16.306V29.894z"/>
</svg>
