<?xml version="1.0" encoding="utf-8"?>
<!-- Generator: Adobe Illustrator 21.0.0, SVG Export Plug-In . SVG Version: 6.00 Build 0)  -->
<svg version="1.1" id="Capa_1" xmlns="http://www.w3.org/2000/svg" xmlns:xlink="http://www.w3.org/1999/xlink" x="0px" y="0px"
	 viewBox="0 0 73.3 73" style="enable-background:new 0 0 73.3 73;" xml:space="preserve">
<style type="text/css">
	.st0{fill:url(#SVGID_1_);}
	.st1{fill:#FFFFFF;}
</style>
<linearGradient id="SVGID_1_" gradientUnits="userSpaceOnUse" x1="36.7242" y1="1.4516" x2="36.7242" y2="72.425">
	<stop  offset="0" style="stop-color:#BD2E88"/>
	<stop  offset="0.2097" style="stop-color:#B92F86"/>
	<stop  offset="0.4271" style="stop-color:#AD307F"/>
	<stop  offset="0.6479" style="stop-color:#983273"/>
	<stop  offset="0.8697" style="stop-color:#7E3262"/>
	<stop  offset="1" style="stop-color:#6B3156"/>
</linearGradient>
<circle class="st0" cx="36.7" cy="36.6" r="35.8"/>
<g>
	<path class="st1" d="M12.2,28.8v18.4l2.8,1v0.5H8.4v-0.5l2.8-1V25.6L9.1,25v-0.5h4.3c1.2,0,2.2,0.2,2.9,0.7
		c0.7,0.5,1.3,1.2,1.8,2.2l7.6,14.5l5.8-14.5c0.4-1,0.9-1.8,1.6-2.2c0.7-0.5,1.7-0.7,3.1-0.7h3.6V25l-2.1,0.5v22.2l2.1,0.5v0.5h-9.9
		v-0.5l2.1-0.5V28.8l-8.1,20.3h-1L12.2,28.8z"/>
	<path class="st1" d="M47.9,47.8c-1.5-1-2.7-2.4-3.5-4.3c-0.9-1.9-1.3-4.2-1.3-6.8c0-2.7,0.5-4.9,1.4-6.8c0.9-1.9,2.2-3.4,3.8-4.3
		c1.7-1,3.6-1.5,5.7-1.5c1.3,0,2.6,0.4,4,1.1c0.5,0.3,1,0.6,1.5,1.1c0.4-0.6,0.8-1.1,1.2-1.4c0.4-0.3,0.6-0.5,0.7-0.5h0.9v6.6h-1.4
		c-0.3-1.1-0.8-2.1-1.4-3c-0.6-0.9-1.2-1.6-2.1-2.2c-0.8-0.6-1.8-0.9-2.8-0.9c-1.6,0-2.9,0.9-4,2.8c-1.1,1.8-1.6,4.9-1.6,9
		c0,4.2,0.5,7.1,1.4,8.8c0.9,1.7,2.1,2.6,3.6,2.6c0.9,0,1.6-0.5,2.3-1.4c0.3-0.3,0.5-0.8,0.8-1.4v-8l-2.1-0.5v-0.5h9.9v0.5L63,37.3
		v11.6h-0.5c-1.7,0-3-0.5-3.8-1.4c-0.4-0.4-0.7-0.9-0.8-1.4c-0.3,0.6-0.7,1.1-1.1,1.6c-1,1-2.3,1.6-3.9,1.6
		C51,49.3,49.4,48.8,47.9,47.8z"/>
</g>
</svg>
